<?xml version="1.0" standalone="no"?>
<!DOCTYPE svg PUBLIC "-//W3C//DTD SVG 20010904//EN"
 "http://www.w3.org/TR/2001/REC-SVG-20010904/DTD/svg10.dtd">
<svg version="1.0" xmlns="http://www.w3.org/2000/svg"
 width="396.000000pt" height="155.000000pt" viewBox="0 0 396.000000 155.000000"
 preserveAspectRatio="xMidYMid meet">
<metadata>
Created by potrace 1.16, written by Peter Selinger 2001-2019
</metadata>
<g transform="translate(0.000000,155.000000) scale(0.100000,-0.100000)"
fill="#000000" stroke="none">
<path d="M375 1281 c-11 -5 -29 -19 -40 -31 -19 -21 -20 -36 -20 -486 l0 -464
28 -27 27 -28 490 0 490 0 27 28 28 27 0 465 0 465 -28 27 -27 28 -478 2
c-262 1 -486 -2 -497 -6z m435 -341 l0 -150 -150 0 -150 0 0 150 0 150 150 0
150 0 0 -150z m400 0 l0 -150 -150 0 -150 0 0 150 0 150 150 0 150 0 0 -150z
m-444 -242 c100 -99 33 -258 -109 -258 -146 0 -200 195 -77 278 29 20 44 23
93 20 50 -4 63 -9 93 -40z m375 19 c122 -81 67 -277 -78 -277 -104 0 -175 87
-153 186 9 38 51 90 85 104 40 17 111 11 146 -13z"/>
<path d="M1895 880 c-33 -13 -47 -36 -43 -72 3 -29 10 -36 61 -61 56 -27 67
-40 46 -52 -16 -11 -59 4 -59 20 0 10 -10 15 -30 15 -37 0 -40 -21 -5 -55 19
-20 34 -25 72 -25 60 0 93 21 93 59 0 38 -17 57 -73 81 -50 21 -58 42 -19 48
13 2 26 -5 34 -17 15 -25 58 -28 58 -5 0 53 -75 89 -135 64z"/>
<path d="M2219 879 c-34 -13 -52 -51 -39 -84 7 -18 28 -34 66 -51 56 -25 67
-46 26 -52 -12 -2 -29 6 -39 17 -22 27 -63 28 -63 3 0 -35 42 -62 96 -62 61 0
94 21 94 59 0 38 -17 57 -72 80 -28 12 -48 27 -48 36 0 23 47 19 60 -5 14 -26
60 -28 60 -2 -1 25 -22 50 -54 62 -32 12 -52 12 -87 -1z"/>
<path d="M1610 765 l0 -115 29 0 c27 0 30 3 33 37 4 54 30 55 63 4 19 -31 32
-41 51 -41 l25 0 -22 40 c-22 38 -22 40 -5 59 11 12 18 35 18 57 0 57 -27 74
-118 74 l-74 0 0 -115z"/>
<path d="M2424 796 c-58 -49 -20 -146 56 -146 17 0 40 11 57 26 l28 25 -51 -5
c-39 -5 -54 -3 -64 9 -11 13 -4 15 54 15 71 0 77 5 55 53 -22 49 -91 61 -135
23z"/>
<path d="M3055 795 c-41 -40 -33 -105 16 -130 39 -21 72 -19 103 6 51 40 25
65 -33 32 -30 -17 -31 -17 -52 3 -41 42 16 100 60 60 22 -20 51 -21 51 -2 0
24 -50 56 -87 56 -23 0 -42 -8 -58 -25z"/>
<path d="M3265 795 c-74 -73 23 -186 110 -129 38 25 31 37 -16 31 -44 -6 -69
-1 -69 14 0 5 27 9 60 9 58 0 60 1 60 25 0 38 -42 75 -85 75 -25 0 -44 -8 -60
-25z"/>
<path d="M3468 809 c-11 -6 -18 -22 -18 -38 0 -25 7 -32 53 -52 43 -19 48 -24
28 -27 -13 -2 -28 1 -34 7 -13 13 -57 15 -57 3 0 -21 28 -43 62 -48 49 -8 85
2 98 26 16 29 -3 56 -47 70 -47 15 -59 26 -39 33 8 3 22 0 30 -8 20 -20 56
-19 56 1 0 9 -8 23 -17 30 -21 16 -91 18 -115 3z"/>
</g>
</svg>
